<svg width="88" height="31" fill="none" xmlns:xlink="http://www.w3.org/1999/xlink" xmlns="http://www.w3.org/2000/svg"><defs><linearGradient id="a"><stop style="stop-color:#000;stop-opacity:1" offset=".104"/><stop style="stop-color:#ef0060;stop-opacity:1" offset=".104"/><stop style="stop-color:#d92626;stop-opacity:1" offset=".343"/><stop style="stop-color:#ef8b3f;stop-opacity:1" offset=".343"/><stop style="stop-color:#eacc00;stop-opacity:1" offset=".561"/><stop style="stop-color:#129900;stop-opacity:1" offset=".561"/><stop style="stop-color:#00c764;stop-opacity:1" offset=".789"/><stop style="stop-color:#003fb9;stop-opacity:1" offset=".789"/><stop style="stop-color:#056ed3;stop-opacity:1" offset=".99"/></linearGradient><linearGradient xlink:href="#a" id="b" x1="0" y1="16.614" x2="37.889" y2="16.614" gradientUnits="userSpaceOnUse" gradientTransform="matrix(1 0 -.36001 .93295 4.24 0)"/><filter style="color-interpolation-filters:sRGB" id="c" x="-.1" y="-.109" width="1.2" height="1.218"><feGaussianBlur stdDeviation=".839"/></filter><filter style="color-interpolation-filters:sRGB" id="d" x="-.11" y="-.125" width="1.219" height="1.251"><feGaussianBlur stdDeviation=".8"/></filter></defs><circle style="fill:#000;fill-opacity:1;stroke:none;stroke-width:1.89;stroke-linecap:round;stroke-linejoin:round;stroke-dasharray:none;stroke-opacity:.40499;paint-order:stroke fill markers" cx="61.297" cy="41.763" r="2.431"/><path style="opacity:1;fill:#000;fill-opacity:1;stroke:none;stroke-width:1.89;stroke-linecap:round;stroke-linejoin:round;stroke-dasharray:none;stroke-opacity:.40499;paint-order:stroke fill markers" d="M0 0h88v31H0z"/><path style="opacity:1;fill:url(#b);stroke-width:1.89;stroke-linecap:round;stroke-linejoin:round;paint-order:markers fill stroke;stroke-dasharray:none" d="M0 0h41.953L30.115 31H0Z"/><path d="M42.547 12.114c-1.947 0-3.143 1.279-3.143 3.108a2.93 2.93 0 0 0 2.908 2.944c.691 0 1.398-1.002 1.705-1.148l.03.397c.036.387.294.657.681.657.422 0 .692-.305.692-.727V14.8c0-1.736-1.396-2.686-2.873-2.686zm-.07 4.762c-.986 0-1.69-.657-1.69-1.736 0-.903.505-1.747 1.736-1.747 1.02 0 1.525.586 1.525 1.524v.235c0 1.15-.645 1.724-1.572 1.724z" style="font-weight:600;font-size:11.728px;line-height:128%;font-family:Torus;-inkscape-font-specification:'Torus Semi-Bold';letter-spacing:0;word-spacing:0;text-orientation:upright;fill:#fff;stroke-width:.75556;stroke-linecap:round;stroke-linejoin:round;paint-order:markers fill stroke" aria-label="a"/><text xml:space="preserve" style="font-style:normal;font-variant:normal;font-weight:600;font-stretch:normal;font-size:8.96228px;line-height:128%;font-family:Torus;-inkscape-font-specification:'Torus Semi-Bold';letter-spacing:-.04px;word-spacing:0;text-orientation:upright;opacity:1;fill:#fff;fill-opacity:1;stroke:none;stroke-width:.577383;stroke-linecap:round;stroke-linejoin:round;paint-order:markers fill stroke" x="36.163" y="27.433"><tspan x="36.163" y="27.433" style="font-style:normal;font-variant:normal;font-weight:600;font-stretch:normal;font-family:Torus;-inkscape-font-specification:'Torus Semi-Bold';letter-spacing:-.04px;fill:#fff;fill-opacity:1;stroke-width:.577383">with a</tspan></text><text xml:space="preserve" style="font-style:normal;font-variant:normal;font-weight:600;font-stretch:normal;font-size:8.49689px;line-height:128%;font-family:Torus;-inkscape-font-specification:'Torus Semi-Bold';letter-spacing:-.1px;word-spacing:0;text-orientation:upright;opacity:1;fill:#fff;fill-opacity:1;stroke:none;stroke-width:.547401;stroke-linecap:round;stroke-linejoin:round;paint-order:markers fill stroke" x="42.965" y="7.833"><tspan x="42.965" y="7.833" style="font-style:normal;font-variant:normal;font-weight:600;font-stretch:normal;font-family:Torus;-inkscape-font-specification:'Torus Semi-Bold';letter-spacing:-.1px;fill:#fff;fill-opacity:1;stroke-width:.547401">created by</tspan></text><path d="M52.613 12.353c-.704 0-1.278.258-1.607.669h-.07v-2.018c0-.55-.387-.961-.927-.961s-.915.41-.915.961v6.38c0 .552.376.95.915.95.54 0 .927-.398.927-.95V14.84c0-.316.281-.844 1.126-.844.586 0 1.008.235 1.008 1.114v2.275c0 .552.376.95.915.95.551 0 .927-.398.927-.95v-2.568c0-1.77-1.103-2.463-2.3-2.463zm8.183.094c-.54 0-.915.399-.915.95V16c0 .34-.34.774-1.114.774-.692.011-1.102-.317-1.102-1.302v-2.076c0-.551-.387-.95-.927-.95s-.915.399-.915.95v2.299c0 1.958 1.138 2.732 2.475 2.732.868 0 1.454-.422 1.642-.739h.07v.012c.059.317.34.633.81.633.515 0 .902-.375.902-.926v-4.011c0-.551-.387-.95-.926-.95zm8.171-.094c-.739 0-1.337.27-1.7.657-.34-.422-.88-.657-1.431-.657-.633 0-1.208.364-1.43.692h-.071v-.012c-.07-.34-.364-.598-.798-.598-.563 0-.915.434-.915.985v3.964c0 .552.376.95.915.95.54 0 .927-.398.927-.95v-2.709c0-.445.363-.692.82-.692.411 0 .704.2.704.704v2.697c0 .552.376.95.915.95.54 0 .927-.398.927-.95v-2.767c0-.434.351-.634.82-.634.435 0 .704.2.704.704v2.697c0 .552.376.95.915.95.54 0 .927-.398.927-.95v-2.732c0-1.396-.939-2.299-2.229-2.299zm6.272 0c-1.9 0-3.32 1.185-3.32 3.085 0 1.806 1.443 2.99 2.968 2.99.891 0 1.036-.73 1.56-.668h.058c.239-.023.434.574.845.574.54 0 .903-.398.903-.95v-2.228c0-1.689-1.408-2.803-3.014-2.803zm-.106 4.433c-.81 0-1.36-.54-1.36-1.372 0-.75.445-1.43 1.384-1.43.809 0 1.278.504 1.278 1.266v.164c0 .938-.598 1.372-1.302 1.372zm7.491-4.433c-.762 0-1.337.329-1.677.716h-.07v-.012c-.094-.41-.434-.61-.786-.61-.551 0-.927.41-.927.962v3.964c0 .55.364.961.915.961s.927-.41.927-.961v-2.534c0-.363.328-.844 1.09-.844.599 0 .986.246.986 1.114v2.264c0 .55.375.961.926.961s.915-.41.915-.961v-2.58c0-1.736-1.103-2.44-2.299-2.44z" style="font-weight:700;font-size:11.728px;line-height:128%;font-family:Torus;-inkscape-font-specification:'Torus Bold';letter-spacing:-.05px;word-spacing:0;text-orientation:upright;fill:#f9f06b;stroke-width:.75556;stroke-linecap:round;stroke-linejoin:round;paint-order:markers fill stroke" aria-label="human"/><text xml:space="preserve" style="font-style:normal;font-variant:normal;font-weight:600;font-stretch:normal;font-size:8.78279px;line-height:128%;font-family:Torus;-inkscape-font-specification:'Torus Semi-Bold';letter-spacing:-.0391989px;word-spacing:0;text-orientation:upright;opacity:1;fill:#f68278;fill-opacity:1;stroke:none;stroke-width:.56582;stroke-linecap:round;stroke-linejoin:round;paint-order:markers fill stroke" x="64.857" y="26.884" transform="scale(.97997 1.02044)"><tspan x="64.857" y="26.884" style="font-style:normal;font-variant:normal;font-weight:600;font-stretch:normal;font-family:Torus;-inkscape-font-specification:'Torus Semi-Bold';letter-spacing:-.0391989px;fill:#f68278;fill-opacity:1;stroke-width:.56582">heart</tspan></text><circle style="opacity:1;fill:#f68278;fill-opacity:1;stroke:none;stroke-width:1.89;stroke-linecap:round;stroke-linejoin:round;stroke-dasharray:none;stroke-opacity:.40499;paint-order:stroke fill markers" cx="61.297" cy="41.763" r="2.431"/><g transform="translate(27.93 26.517)"><text xml:space="preserve" style="font-style:normal;font-variant:normal;font-weight:600;font-stretch:normal;font-size:8.96228px;line-height:128%;font-family:Torus;-inkscape-font-specification:'Torus Semi-Bold';letter-spacing:-.04px;word-spacing:0;text-orientation:upright;opacity:1;fill:#e4a2bc;fill-opacity:1;stroke:none;stroke-width:.577383;stroke-linecap:round;stroke-linejoin:round;paint-order:markers fill stroke" x="63.509" y="27.45"><tspan x="63.509" y="27.45" style="font-style:normal;font-variant:normal;font-weight:600;font-stretch:normal;font-family:Torus;-inkscape-font-specification:'Torus Semi-Bold';letter-spacing:-.04px;fill:#e4a2bc;fill-opacity:1;stroke-width:.577383">brain</tspan></text><circle style="fill:#e4a2bc;fill-opacity:1;stroke:none;stroke-width:1.89;stroke-linecap:round;stroke-linejoin:round;stroke-dasharray:none;stroke-opacity:.40499;paint-order:stroke fill markers" cx="61.297" cy="41.763" r="2.431"/></g><circle style="fill:#000;fill-opacity:1;stroke:none;stroke-width:1.89;stroke-linecap:round;stroke-linejoin:round;stroke-dasharray:none;stroke-opacity:.40499;paint-order:stroke fill markers" cx="2.931" cy="41.181" r="2.431"/><g transform="translate(18.608 70.894)"><path style="color:#000;opacity:.405745;mix-blend-mode:normal;fill:#000;stroke:#000;stroke-linecap:round;-inkscape-stroke:none;paint-order:stroke fill markers;filter:url(#c)" d="M14.385 5.97c-.42.01-.867.06-1.34.157-1.921.395-3.273 1.633-3.79 3.156-.135.401-.212.82-.237 1.244-.852.158-1.743.66-2.518 1.489-.935 1-1.614 2.546-1.39 4.478.226 1.965 1.098 3.342 2.187 4.168.892.677 1.892.996 2.787 1.115.348.983.915 1.68 1.52 2.112.694.496 1.39.661 1.953.644l.068-.002.068-.013c2.207-.437 3.339.126 4.069.931s1.02 2.007 1.029 2.783a.843.843 0 0 0 .854.832.843.843 0 0 0 .832-.851c-.013-1.133-.357-2.674-1.465-3.897-1.094-1.205-2.967-1.947-5.537-1.468a1.774 1.774 0 0 1-.891-.332c-.379-.271-.775-.728-1.008-1.618-.29-1.11-.07-1.808.397-2.35.35-.405.892-.723 1.55-.902.311 1.077.941 2.24 2.057 3.276a.843.843 0 0 0 1.191-.045.843.843 0 0 0-.044-1.191c-1.032-.957-1.491-1.976-1.676-2.877a4.755 4.755 0 0 1-.063-1.518c.484-.088.986-.28 1.48-.57a.843.843 0 0 0 .3-1.155.843.843 0 0 0-1.155-.298c-.463.272-.821.386-1.095.41a.843.843 0 0 0-.342-.022.676.676 0 0 1-.301-.156c-.224-.206-.405-.75-.002-1.662a.843.843 0 0 0-.43-1.111.843.843 0 0 0-1.111.43c-.594 1.345-.5 2.752.398 3.581.172.159.365.287.573.383a5.834 5.834 0 0 0-.04.852c-1 .235-1.911.713-2.568 1.474-.576.668-.91 1.553-.92 2.551a4.04 4.04 0 0 1-1.459-.678c-.737-.56-1.348-1.434-1.53-3.02-.17-1.463.304-2.448.944-3.134a3.622 3.622 0 0 1 1.477-.934c.177.627.47 1.241.879 1.811a.843.843 0 0 0 1.178.191.843.843 0 0 0 .191-1.175c-.773-1.076-.932-2.267-.603-3.235.328-.967 1.113-1.755 2.533-2.047 2.068-.425 3.007.163 3.64.891s.848 1.628.965 2.059a.843.843 0 0 0 1.035.591.843.843 0 0 0 .592-1.035c-.04-.15-.15-.654-.416-1.265.598-.78 2.006-1.453 4.225-.32 1.137.58 1.494 1.454 1.558 2.366.033.457-.03.912-.134 1.272-.106.36-.282.628-.315.66a.843.843 0 0 0 0 1.193.843.843 0 0 0 1.194 0c.307-.307.504-.677.654-1.109.429.092.942.287 1.32.61.52.443.895 1.059.725 2.34-.162 1.21-.867 1.897-1.815 2.38-.565.289-1.211.466-1.79.565-.085-.71-.442-1.458-1.042-2.137a.843.843 0 0 0-.58-.283.843.843 0 0 0-.61.209.843.843 0 0 0-.073 1.19c.571.647.687 1.109.644 1.41a.843.843 0 0 0-.19.374c-.226.213-.709.383-1.529.196a.843.843 0 0 0-1.01.632.843.843 0 0 0 .635 1.01c1.322.302 2.583.019 3.276-.842.89-.064 1.99-.29 3.035-.822 1.275-.65 2.477-1.85 2.719-3.66.232-1.74-.4-3.078-1.301-3.846a4.557 4.557 0 0 0-2.12-.996c.003-.153 0-.307-.011-.465-.096-1.352-.804-2.898-2.473-3.75-.777-.396-1.527-.622-2.23-.709-1.525-.188-2.822.278-3.68 1.06-.786-.894-2.09-1.613-3.898-1.575Zm6.902 3.805a.843.843 0 0 0-.851.647c-.145.607-.347 1.751-.12 2.902-.995.514-1.645 1.264-1.98 2.086-.549 1.347-.37 2.739-.248 3.637a.843.843 0 0 0 .95.723.843.843 0 0 0 .72-.95c-.115-.849-.196-1.953.138-2.773.335-.82.965-1.503 2.924-1.695a.843.843 0 0 0 .758-.92.843.843 0 0 0-.922-.758 7.8 7.8 0 0 0-.699.101c-.064-.714.037-1.618.12-1.963a.843.843 0 0 0-.626-1.015.843.843 0 0 0-.164-.022z"/><path style="color:#000;fill:#fff;stroke:#000;stroke-linecap:round;stroke-opacity:.40499;-inkscape-stroke:none;paint-order:stroke fill markers" d="M14.385 4.97c-.42.01-.867.06-1.34.157-1.921.395-3.273 1.633-3.79 3.156-.135.401-.212.82-.237 1.244-.852.158-1.743.66-2.518 1.489-.935 1-1.614 2.546-1.39 4.478.226 1.965 1.098 3.342 2.187 4.168.892.677 1.892.996 2.787 1.115.348.983.915 1.68 1.52 2.112.694.496 1.39.661 1.953.644l.068-.002.068-.013c2.207-.437 3.339.126 4.069.931s1.02 2.007 1.029 2.783a.843.843 0 0 0 .854.832.843.843 0 0 0 .832-.851c-.013-1.133-.357-2.674-1.465-3.897-1.094-1.205-2.967-1.947-5.537-1.468a1.774 1.774 0 0 1-.891-.332c-.379-.271-.775-.728-1.008-1.618-.29-1.11-.07-1.808.397-2.35.35-.405.892-.723 1.55-.902.311 1.077.941 2.24 2.057 3.276a.843.843 0 0 0 1.191-.045.843.843 0 0 0-.044-1.191c-1.032-.957-1.491-1.976-1.676-2.877a4.755 4.755 0 0 1-.063-1.518c.484-.088.986-.28 1.48-.57a.843.843 0 0 0 .3-1.155.843.843 0 0 0-1.155-.298c-.463.272-.821.386-1.095.41a.843.843 0 0 0-.342-.022.676.676 0 0 1-.301-.156c-.224-.206-.405-.75-.002-1.662a.843.843 0 0 0-.43-1.111.843.843 0 0 0-1.111.43c-.594 1.345-.5 2.752.398 3.581.172.159.365.287.573.383a5.834 5.834 0 0 0-.04.852c-1 .235-1.911.713-2.568 1.474-.576.668-.91 1.553-.92 2.551a4.04 4.04 0 0 1-1.459-.678c-.737-.56-1.348-1.434-1.53-3.02-.17-1.463.304-2.448.944-3.134a3.622 3.622 0 0 1 1.477-.934c.177.627.47 1.241.879 1.811a.843.843 0 0 0 1.178.191.843.843 0 0 0 .191-1.175c-.773-1.076-.931-2.267-.603-3.235.328-.967 1.113-1.755 2.533-2.047 2.068-.425 3.007.163 3.64.891s.848 1.628.965 2.059a.843.843 0 0 0 1.035.591.843.843 0 0 0 .592-1.035c-.04-.15-.15-.654-.416-1.265.598-.78 2.006-1.453 4.225-.32 1.137.58 1.494 1.454 1.558 2.366.033.457-.03.912-.134 1.272-.106.36-.282.628-.315.66a.843.843 0 0 0 0 1.193.843.843 0 0 0 1.194 0c.307-.307.504-.677.654-1.109.429.092.942.287 1.32.61.52.443.895 1.059.725 2.34-.162 1.21-.867 1.897-1.815 2.38-.565.289-1.211.466-1.79.565-.085-.71-.442-1.458-1.042-2.137a.843.843 0 0 0-.58-.283.843.843 0 0 0-.61.209.843.843 0 0 0-.073 1.19c.571.647.687 1.109.644 1.41a.843.843 0 0 0-.19.374c-.226.213-.709.383-1.529.196a.843.843 0 0 0-1.01.632.843.843 0 0 0 .635 1.01c1.322.302 2.583.019 3.276-.842.89-.064 1.99-.29 3.035-.822 1.275-.65 2.477-1.85 2.719-3.66.232-1.74-.4-3.078-1.301-3.846a4.557 4.557 0 0 0-2.12-.996c.003-.153 0-.307-.011-.465-.096-1.352-.804-2.898-2.473-3.75-.777-.396-1.527-.622-2.23-.709-1.525-.188-2.822.278-3.68 1.06-.786-.894-2.09-1.613-3.898-1.575Zm6.902 3.805a.843.843 0 0 0-.851.647c-.145.607-.347 1.751-.12 2.902-.995.514-1.645 1.264-1.98 2.086-.549 1.347-.37 2.739-.248 3.637a.843.843 0 0 0 .95.723.843.843 0 0 0 .72-.95c-.115-.849-.196-1.953.138-2.773.335-.82.965-1.503 2.924-1.695a.843.843 0 0 0 .758-.92.843.843 0 0 0-.922-.758 7.8 7.8 0 0 0-.699.101c-.064-.714.037-1.618.12-1.962a.843.843 0 0 0-.626-1.016.843.843 0 0 0-.164-.022z"/><circle style="fill:#e4a2bc;fill-opacity:1;stroke:none;stroke-width:1.89;stroke-linecap:round;stroke-linejoin:round;stroke-dasharray:none;stroke-opacity:.40499;paint-order:stroke fill markers" cx="2.931" cy="41.181" r="2.431"/></g><path style="color:#000;opacity:.572711;mix-blend-mode:normal;fill:#000;fill-opacity:1;stroke:#000;stroke-linecap:round;stroke-linejoin:round;stroke-opacity:1;-inkscape-stroke:none;paint-order:stroke fill markers;filter:url(#d)" d="M11.13 8.123c-.828.266-1.596.776-2.247 1.447-1.611 1.66-2.025 3.643-1.524 5.487.502 1.844 1.776 3.573 3.358 5.275 1.037 1.116 2.642 2.21 4.039 3.318 1.397 1.108 2.482 2.296 2.601 2.868a.85.85 0 0 0 1.659.03c.176-.711 1.219-1.854 2.537-2.944 1.317-1.09 2.833-2.162 3.851-3.276 1.744-1.908 3.066-3.606 3.59-5.4.524-1.794.07-3.677-1.484-5.346-1.232-1.323-3.035-2.028-4.88-1.445-1.57.496-3.062 2.017-4.472 4.299-1.442-2.249-2.886-3.77-4.414-4.293a4.081 4.081 0 0 0-2.613-.02Zm.47 1.59c.502-.17 1.02-.16 1.593.037 1.146.393 2.643 1.742 4.23 4.566a.85.85 0 0 0 1.495-.021c1.492-2.85 3.019-4.156 4.225-4.537 1.205-.381 2.21.005 3.12.982 1.274 1.368 1.48 2.406 1.098 3.711-.38 1.305-1.527 2.887-3.213 4.73-.801.878-2.299 1.972-3.68 3.114-.899.744-1.67 1.54-2.282 2.4-.628-.849-1.432-1.63-2.373-2.377-1.458-1.156-3.053-2.282-3.852-3.142C10.467 17.568 9.375 15.992 9 14.61c-.375-1.38-.175-2.54 1.104-3.857.508-.524.993-.872 1.496-1.041Z" transform="matrix(1.02444 0 0 1.02444 .13 -1.335)"/><path style="color:#000;fill:#fff;stroke:#000;stroke-linecap:round;stroke-linejoin:round;stroke-opacity:.443137;-inkscape-stroke:none;paint-order:stroke fill markers" d="M11.13 7.123c-.828.266-1.596.776-2.247 1.447-1.611 1.66-2.025 3.643-1.524 5.487.502 1.844 1.776 3.573 3.358 5.275 1.037 1.116 2.642 2.21 4.039 3.318 1.397 1.108 2.482 2.296 2.601 2.868a.85.85 0 0 0 1.659.03c.176-.711 1.219-1.854 2.537-2.944 1.317-1.09 2.833-2.162 3.851-3.276 1.744-1.908 3.066-3.606 3.59-5.4.524-1.794.07-3.677-1.484-5.346-1.232-1.323-3.035-2.028-4.88-1.445-1.57.496-3.062 2.017-4.472 4.299-1.442-2.249-2.886-3.77-4.414-4.293a4.081 4.081 0 0 0-2.613-.02Zm.47 1.59c.502-.17 1.02-.16 1.593.037 1.146.393 2.643 1.742 4.23 4.566a.85.85 0 0 0 1.495-.021c1.492-2.85 3.019-4.156 4.225-4.537 1.205-.381 2.21.005 3.12.982 1.274 1.368 1.48 2.406 1.098 3.711-.38 1.305-1.527 2.887-3.213 4.73-.801.878-2.299 1.972-3.68 3.114-.899.744-1.67 1.54-2.282 2.4-.628-.849-1.432-1.63-2.373-2.377-1.458-1.156-3.053-2.282-3.852-3.142C10.467 16.568 9.375 14.992 9 13.61c-.375-1.38-.175-2.54 1.104-3.857.508-.524.993-.872 1.496-1.041Z" transform="matrix(1.02444 0 0 1.02444 .13 -1.335)"/><circle style="fill:#f68278;fill-opacity:1;stroke:none;stroke-width:1.89;stroke-linecap:round;stroke-linejoin:round;stroke-dasharray:none;stroke-opacity:.40499;paint-order:stroke fill markers" cx="2.931" cy="41.181" r="2.431"/></svg>