<svg xmlns="http://www.w3.org/2000/svg" viewBox="5 6 52 52"><defs><style>.cls-4{fill:#333a45}.cls-5{opacity:.8}</style></defs><circle cx="32.01" cy="32.13" r="25.05" style="fill:#00bbf1"/><path d="M43.42 34.33c-1.38.17-2.5.04-2.5.04v-8.46h1.7c1.12 0 2.21.47 2.94 1.32.52.6.93 1.44.93 2.61 0 2.85-1.47 3.97-3.06 4.49m7.27-5.94c-.5-2.62-1.91-4.25-3.35-5.26s-3.28-1.58-5.1-1.58H16.38c-.9 0-1.24.88-1.25 1.32v.29s-.04 11.44.04 17.55c.24 3.61 3.86 3.61 3.86 3.61s11.8-.03 17.46-.07c.27 0 .53-.03.79-.09 3.22-.81 3.55-3.8 3.52-5.47 6.48.36 11.04-4.21 9.89-10.29" style="fill:#fff"/><path d="M19.03 45.32c-1.58 0-4.61-.95-4.86-4.54-.08-6.1-.04-17.5-.04-17.62v-.3c0-.92.72-2.3 2.25-2.3h25.86c2.07 0 4.03.61 5.68 1.76 2.02 1.41 3.29 3.39 3.76 5.89.58 3.06-.14 5.94-2.03 8.1-1.86 2.12-4.69 3.33-7.87 3.4-.23 2.88-1.71 4.79-4.25 5.42-.32.08-.67.12-1.02.12-5.66.04-17.46.07-17.46.07Zm-2.65-22.76c-.2 0-.25.32-.25.33v.27c0 .13-.04 11.51.04 17.54.17 2.54 2.58 2.62 2.86 2.62s11.79-.03 17.45-.07c.2 0 .38-.02.55-.06 1.88-.47 2.81-1.98 2.76-4.48 0-.28.11-.55.31-.74s.47-.3.75-.28c2.97.16 5.63-.82 7.28-2.7 1.48-1.68 2.04-3.96 1.57-6.41-.37-1.97-1.36-3.52-2.94-4.62-1.31-.92-2.88-1.4-4.53-1.4H16.38Zm25.56 12.86c-.67 0-1.11-.05-1.14-.05-.5-.06-.89-.49-.89-.99v-8.46c0-.55.45-1 1-1h1.7c1.44 0 2.79.61 3.7 1.67.78.9 1.17 2 1.17 3.26 0 2.8-1.26 4.63-3.75 5.44-.06.02-.12.03-.18.04-.6.08-1.15.1-1.6.1Zm1.48-1.09Zm-1.5-.91c.35.01.8-.02 1.29-.07 1.14-.39 2.28-1.13 2.28-3.51 0-.77-.23-1.43-.69-1.95-.53-.62-1.33-.97-2.18-.97h-.7v6.5Z"/><path d="M27.8 39.57c.28.14.46-.03.46-.03s4.12-3.76 5.97-5.92c1.65-1.94 1.76-5.2-1.08-6.41-2.83-1.22-5.16 1.43-5.16 1.43-2.02-2.22-5.08-2.11-6.49-.61-1.41 1.5-.92 4.08.13 5.52.99 1.35 5.34 5.23 6 5.88 0 0 .05.05.16.13" style="fill:#ff5f5f"/></svg>
